<svg id="_24-hours" data-name="24-hours" xmlns="http://www.w3.org/2000/svg" width="60" height="60" viewBox="0 0 60 60">
  <path id="Path_301" data-name="Path 301" d="M155.739,209.761a1.773,1.773,0,0,0-1.772-1.772h-5.822v-4.049h5.822a1.773,1.773,0,0,0,1.772-1.772v-7.594a1.773,1.773,0,0,0-1.772-1.772h-7.594a1.772,1.772,0,0,0,0,3.545h5.822v4.049h-5.822a1.773,1.773,0,0,0-1.772,1.772v7.594a1.773,1.773,0,0,0,1.772,1.772h7.594A1.773,1.773,0,0,0,155.739,209.761Z" transform="translate(-127.687 -170.291)" fill="#008bd2" opacity="0.4"/>
  <path id="Path_302" data-name="Path 302" d="M274.905,192.8a1.773,1.773,0,0,0-1.773,1.772v7.594a1.773,1.773,0,0,0,1.773,1.772h5.822v5.822a1.772,1.772,0,1,0,3.545,0V194.572a1.772,1.772,0,0,0-3.545,0v5.822h-4.049v-5.822A1.772,1.772,0,0,0,274.905,192.8Z" transform="translate(-241.185 -170.291)" fill="#fecc00"/>
  <path id="Path_303" data-name="Path 303" d="M58.242,20.711H52.4a22.469,22.469,0,0,0-44.8,0H1.758A1.758,1.758,0,0,0,0,22.469V43.18a1.758,1.758,0,0,0,1.758,1.758H9.289a1.758,1.758,0,0,0,1.758-1.758V22.469a18.953,18.953,0,1,1,37.906,0V43.18a9.55,9.55,0,0,1-9.539,9.539H35.235a5.524,5.524,0,1,0,0,3.516h4.179a13.074,13.074,0,0,0,12.936-11.3h5.892A1.758,1.758,0,0,0,60,43.18V22.469a1.758,1.758,0,0,0-1.758-1.758ZM7.531,41.422H3.516v-17.2H7.531ZM30,56.484a2.008,2.008,0,1,1,2.008-2.008A2.01,2.01,0,0,1,30,56.484ZM56.484,41.422H52.469v-17.2h4.016Z" fill="#008bd2"/>
</svg>
