<svg xmlns="http://www.w3.org/2000/svg" width="180" height="70" viewBox="0 0 180 70">
  <g id="Group_80" data-name="Group 80" transform="translate(-538 -5739)">
    <rect id="Rectangle_25" data-name="Rectangle 25" width="180" height="70" rx="6" transform="translate(538 5739)" fill="#008bd2"/>
    <text id="حمل_التطبيق_على" data-name="حمل التطبيق على" transform="translate(603 5766)" fill="#fff" font-size="12" font-family="LamaSans-Regular, Lama Sans"><tspan x="-44.568" y="0">حمل التطبيق على</tspan></text>
    <text id="Google_Play" data-name="Google Play" transform="translate(603 5790)" fill="#fff" font-size="16" font-family="LamaSans-Bold, Lama Sans" font-weight="700"><tspan x="-45.856" y="0">Google Play</tspan></text>
    <g id="Group_81" data-name="Group 81" transform="translate(-7 1)">
      <g id="google-play_twotone" data-name="google-play/twotone" transform="translate(666 5753)">
        <g id="vuesax_twotone_google-play" data-name="vuesax/twotone/google-play">
          <g id="google-play">
            <path id="BG_107" data-name="BG 107" d="M0,0H40V40H0Z" fill="none" opacity="0.58"/>
            <path id="Vector" d="M24.867,11.337,19.5,16.7,3.533,32.671l-.967.483A1.776,1.776,0,0,1,0,31.554V1.787A1.785,1.785,0,0,1,2.583.187Z" transform="translate(3.333 3.33)" fill="none" stroke="#fff" stroke-linecap="round" stroke-linejoin="round" stroke-width="2"/>
            <g id="Group" transform="translate(6.817 4.017)" opacity="0.4">
              <path id="Vector-2" data-name="Vector" d="M12.85,6.917,5.317,10.683,0,5.367,5.367,0,12.85,3.75A1.763,1.763,0,0,1,12.85,6.917Z" transform="translate(16 10.65)" fill="none" stroke="#fff" stroke-linecap="round" stroke-linejoin="round" stroke-width="2"/>
              <path id="Vector-3" data-name="Vector" d="M21.283,5.317,0,15.967,15.967,0Z" transform="translate(0.05 16.017)" fill="none" stroke="#fff" stroke-linecap="round" stroke-linejoin="round" stroke-width="2"/>
              <path id="Vector-4" data-name="Vector" d="M16.017,16.017,0,0" fill="none" stroke="#fff" stroke-linecap="round" stroke-linejoin="round" stroke-width="2"/>
            </g>
            <path id="Vector-5" data-name="Vector" d="M0,0H40V40H0Z" fill="none" opacity="0"/>
          </g>
        </g>
      </g>
    </g>
  </g>
</svg>
