<svg xmlns="http://www.w3.org/2000/svg" width="50" height="50" viewBox="0 0 50 50">
  <g id="Group_9" data-name="Group 9" transform="translate(-914 -937.965)">
    <g id="apple_twotone" data-name="apple/twotone" transform="translate(914 937.965)">
      <g id="vuesax_twotone_apple" data-name="vuesax/twotone/apple">
        <g id="apple">
          <path id="BG_19" data-name="BG 19" d="M0,0H50V50H0Z" fill="none" opacity="0.58"/>
          <path id="Vector" d="M29.936,23.483a26.692,26.692,0,0,0,2.438-4.58c-6.419-2.436-7.461-11.575-1.1-15.073A9.565,9.565,0,0,0,24.037,0a11.041,11.041,0,0,0-4.272.916,7.8,7.8,0,0,1-2.918.708A9.856,9.856,0,0,1,13.575.874,11.415,11.415,0,0,0,9.615,0,9.875,9.875,0,0,0,1.7,4.767C-1.035,9.015-.576,16.988,3.863,23.8c1.584,2.436,3.71,5.163,6.482,5.184a5.9,5.9,0,0,0,2.751-.708,8.34,8.34,0,0,1,3.772-.9,7.674,7.674,0,0,1,3.751.9,5.894,5.894,0,0,0,2.689.708C26.1,28.959,28.352,25.919,29.936,23.483Z" transform="translate(8.799 16.857)" fill="none" stroke="#000" stroke-linecap="round" stroke-linejoin="round" stroke-width="3"/>
          <path id="Vector-2" data-name="Vector" d="M7.727,0A8.373,8.373,0,0,1,5.895,6.141,7.449,7.449,0,0,1,.086,9.1a7.742,7.742,0,0,1,1.874-6A9.049,9.049,0,0,1,7.727,0Z" transform="translate(25.625 4.309)" fill="none" stroke="#000" stroke-linecap="round" stroke-linejoin="round" stroke-width="3" opacity="0.4"/>
          <path id="Vector-3" data-name="Vector" d="M0,0H50V50H0Z" fill="none" opacity="0"/>
        </g>
      </g>
    </g>
  </g>
</svg>
