<svg xmlns="http://www.w3.org/2000/svg" width="52.734" height="60" viewBox="0 0 52.734 60">
  <g id="bill" transform="translate(-31)">
    <path id="Path_293" data-name="Path 293" d="M69.672,21.211h12.3a1.758,1.758,0,0,0,1.758-1.758V8.789A8.8,8.8,0,0,0,74.945,0H39.789A8.8,8.8,0,0,0,31,8.789V58.242A1.758,1.758,0,0,0,32.758,60H67.914a1.758,1.758,0,0,0,1.758-1.758ZM80.219,8.789V17.7H69.672V8.789a5.273,5.273,0,0,1,10.547,0Zm-14.062,47.7H34.516V8.789a5.281,5.281,0,0,1,5.273-5.275h28.13a8.749,8.749,0,0,0-1.763,5.275Z" fill="#008bd2"/>
    <path id="Path_294" data-name="Path 294" d="M114.119,302H92.778a1.778,1.778,0,1,0,0,3.557h21.341a1.778,1.778,0,1,0,0-3.557Z" transform="translate(-52.886 -266.635)" fill="#008bd2" opacity="0.4"/>
    <path id="Path_295" data-name="Path 295" d="M114.119,362H92.778a1.778,1.778,0,0,0,0,3.557h21.341a1.778,1.778,0,0,0,0-3.557Z" transform="translate(-52.886 -319.609)" fill="#008bd2" opacity="0.4"/>
    <path id="Path_296" data-name="Path 296" d="M114.119,422H92.778a1.778,1.778,0,1,0,0,3.557h21.341a1.778,1.778,0,1,0,0-3.557Z" transform="translate(-52.886 -372.67)" fill="#008bd2" opacity="0.4"/>
    <path id="Path_297" data-name="Path 297" d="M156.335,74.346a1.778,1.778,0,1,1-1.639,2.47A1.778,1.778,0,0,0,151.42,78.2a5.326,5.326,0,0,0,3.137,2.954v2.2a1.778,1.778,0,1,0,3.557,0v-2.2a5.335,5.335,0,0,0-1.778-10.364,1.778,1.778,0,1,1,1.639-2.47,1.778,1.778,0,0,0,3.276-1.385,5.326,5.326,0,0,0-3.137-2.954v-2.2a1.778,1.778,0,0,0-3.557,0v2.2a5.335,5.335,0,0,0,1.778,10.364Z" transform="translate(-105.979 -52.886)" fill="#fecc00"/>
  </g>
</svg>
