<svg xmlns="http://www.w3.org/2000/svg" width="60" height="60" viewBox="0 0 60 60">
  <path id="device" d="M56.484,23.714v-5.55A4.087,4.087,0,0,0,55.313,15.3V6.445A6.452,6.452,0,0,0,48.867,0H6.445A6.452,6.452,0,0,0,0,6.445V34.57a6.452,6.452,0,0,0,6.445,6.445H19.358l-1.172,3.516H17.109A5.279,5.279,0,0,0,11.836,49.8V53.32a1.758,1.758,0,0,0,1.758,1.758h13.99a4.107,4.107,0,0,0,3.705,2.344h6.74A4.107,4.107,0,0,0,41.836,60H55.9A4.106,4.106,0,0,0,60,55.9V27.773a4.107,4.107,0,0,0-3.516-4.059ZM30.7,46.289V18.164a.586.586,0,0,1,.586-.586H52.383a.586.586,0,0,1,.586.586v5.508H41.836a4.1,4.1,0,0,0-4.1,4.1v19.1H30.7ZM41.25,27.773a.586.586,0,0,1,.586-.586H55.9a.586.586,0,0,1,.586.586v21.68H41.25ZM6.445,3.515H48.867a2.933,2.933,0,0,1,2.93,2.93v7.617H31.289a4.106,4.106,0,0,0-4.1,4.1v12.3H3.516V6.445A2.933,2.933,0,0,1,6.445,3.515ZM3.516,34.57v-.586H27.188V37.5H6.445A2.933,2.933,0,0,1,3.516,34.57Zm19.548,6.445h4.124v3.516h-5.3ZM15.352,49.8a1.76,1.76,0,0,1,1.758-1.758H27.188v3.516H15.352ZM30.7,53.32V50.39h7.031v3.516H31.289A.586.586,0,0,1,30.7,53.32Zm25.2,3.164H41.836a.586.586,0,0,1-.586-.586v-2.93H56.484V55.9A.586.586,0,0,1,55.9,56.484Zm0,0" transform="translate(0 0)" fill="#008bd2"/>
</svg>
