<svg id="download" xmlns="http://www.w3.org/2000/svg" width="60" height="60" viewBox="0 0 60 60">
  <path id="Path_284" data-name="Path 284" d="M215.086,250.173a1.787,1.787,0,0,0,2.521,0l3.565-3.565a1.783,1.783,0,1,0-2.521-2.521l-.522.522v-2.827a1.783,1.783,0,1,0-3.565,0v2.827l-.522-.522a1.783,1.783,0,0,0-2.521,2.521Z" transform="translate(-186.347 -211.959)" fill="#fecc00"/>
  <path id="Path_285" data-name="Path 285" d="M52.84,18.8a12.23,12.23,0,0,0-2.976-7.482,12.358,12.358,0,0,0-6.555-3.941,15.688,15.688,0,0,0-26.616,0,12.358,12.358,0,0,0-6.555,3.941A12.23,12.23,0,0,0,7.16,18.8a12.245,12.245,0,0,0,5.262,23.383H14.18V58.242A1.758,1.758,0,0,0,15.937,60H44.062a1.758,1.758,0,0,0,1.758-1.758V42.187h1.758A12.245,12.245,0,0,0,52.84,18.8ZM42.3,56.484H17.7V24.609H42.3Zm5.273-17.812H45.82V22.852a1.758,1.758,0,0,0-1.758-1.758H15.937a1.758,1.758,0,0,0-1.758,1.758v15.82H12.422a8.741,8.741,0,0,1-2.874-17.05,1.758,1.758,0,0,0,1.176-1.764c-.014-.241-.053-.452-.06-.531a8.727,8.727,0,0,1,7.409-8.634,1.758,1.758,0,0,0,1.256-.873,12.185,12.185,0,0,1,21.343,0,1.758,1.758,0,0,0,1.256.873,8.727,8.727,0,0,1,7.409,8.634c-.007.086-.045.285-.06.531a1.758,1.758,0,0,0,1.176,1.764,8.741,8.741,0,0,1-2.874,17.05Z" fill="#008bd2"/>
  <path id="Path_286" data-name="Path 286" d="M197.043,360h-14.26a1.783,1.783,0,0,0,0,3.565h14.26a1.783,1.783,0,0,0,0-3.565Z" transform="translate(-159.913 -317.849)" fill="#008bd2" opacity="0.4"/>
  <path id="Path_287" data-name="Path 287" d="M197.043,420h-14.26a1.783,1.783,0,1,0,0,3.565h14.26a1.783,1.783,0,1,0,0-3.565Z" transform="translate(-159.913 -370.933)" fill="#008bd2" opacity="0.4"/>
</svg>
