<svg xmlns="http://www.w3.org/2000/svg" width="60.085" height="60" viewBox="0 0 60.085 60">
  <g id="no-wifi" transform="translate(0.001 -0.364)">
    <g id="Group_28" data-name="Group 28" transform="translate(33.587 33.952)">
      <path id="Path_288" data-name="Path 288" d="M371.331,363.76a1.784,1.784,0,0,0-2.523,0l-1.441,1.441-1.441-1.441a1.784,1.784,0,0,0-2.523,2.523l1.441,1.441-1.441,1.441a1.784,1.784,0,1,0,2.523,2.523l1.441-1.441,1.441,1.441a1.784,1.784,0,1,0,2.523-2.523l-1.441-1.441,1.441-1.441A1.784,1.784,0,0,0,371.331,363.76Z" transform="translate(-354.118 -354.476)" fill="#008bd2" opacity="0.4"/>
      <path id="Path_289" data-name="Path 289" d="M302.452,289.566A13.264,13.264,0,0,0,289.2,302.815c.666,17.552,25.834,17.547,26.5,0A13.264,13.264,0,0,0,302.452,289.566Zm0,22.93a9.692,9.692,0,0,1-9.681-9.681c.487-12.825,18.877-12.822,19.362,0A9.692,9.692,0,0,1,302.452,312.5Z" transform="translate(-289.203 -289.566)" fill="#fecc00"/>
    </g>
    <g id="Group_29" data-name="Group 29" transform="translate(-0.001 0.364)">
      <path id="Path_290" data-name="Path 290" d="M93.692,137.069c-4.986,5.5,2.446,13.121,7.816,8.011a9.453,9.453,0,0,1,13.6,0,5.433,5.433,0,0,0,7.816,0,5.764,5.764,0,0,0,0-8.011,20.319,20.319,0,0,0-29.234,0Zm26.772,5.488a2.013,2.013,0,0,1-2.893,0,12.89,12.89,0,0,0-18.524,0,2.013,2.013,0,0,1-2.893,0,2.136,2.136,0,0,1,0-2.965,16.915,16.915,0,0,1,24.31,0A2.136,2.136,0,0,1,120.464,142.557Z" transform="translate(-81.099 -115.343)" fill="#008bd2"/>
      <path id="Path_291" data-name="Path 291" d="M52.785,11.115a35.8,35.8,0,0,0-51.151,0,5.724,5.724,0,0,0,0,8.011,5.524,5.524,0,0,0,7.894,0,24.748,24.748,0,0,1,35.364,0c5.409,5.108,12.935-2.5,7.894-8.011ZM50.3,16.6a2.047,2.047,0,0,1-2.922,0,28.212,28.212,0,0,0-40.336,0,2.047,2.047,0,0,1-2.922,0,2.121,2.121,0,0,1,0-2.965,32.3,32.3,0,0,1,46.179,0,2.121,2.121,0,0,1,0,2.965Z" transform="translate(0.001 -0.364)" fill="#008bd2"/>
      <path id="Path_292" data-name="Path 292" d="M186.215,263.024a5.664,5.664,0,1,0,8.011,0A5.664,5.664,0,0,0,186.215,263.024Zm5.488,5.488a2.1,2.1,0,1,1,0-2.965A2.1,2.1,0,0,1,191.7,268.512Z" transform="translate(-163.01 -230.324)" fill="#008bd2"/>
    </g>
  </g>
</svg>
