<svg width="168" height="180" viewBox="0 0 168 180" fill="none" xmlns="http://www.w3.org/2000/svg">
<path id="Vector" d="M162.25 37.38L98.25 3.38C93.9167 1.16142 89.1182 0.00444031 84.25 0.00444031C79.3818 0.00444031 74.5833 1.16142 70.25 3.38L6.25 37.38C4.54162 38.1624 3.10561 39.4369 2.12579 41.0402C1.14597 42.6435 0.666935 44.5028 0.749999 46.38V125.38C0.726071 128.978 1.69315 132.514 3.54525 135.599C5.39735 138.684 8.06298 141.199 11.25 142.87L78.75 178.87C80.2241 179.61 81.8507 179.995 83.5 179.995C85.1493 179.995 86.7759 179.61 88.25 178.87L156.75 142.87C159.895 141.15 162.526 138.622 164.371 135.549C166.217 132.475 167.21 128.965 167.25 125.38V45.88C167.255 44.1437 166.794 42.4377 165.915 40.9407C165.035 39.4436 163.769 38.2104 162.25 37.37V37.38ZM74.25 153.38L21.25 125.38V62.38L74.25 90.87V153.38ZM84.25 73.38L32.75 45.88L79.75 20.88C81.2241 20.1402 82.8507 19.755 84.5 19.755C86.1493 19.755 87.7759 20.1402 89.25 20.88L136.25 45.88L84.25 73.38ZM147.25 125.38L94.25 153.38V90.88L147.25 62.88V125.38Z" fill="#008BD2"/>
</svg>
