<svg id="pie-chart" xmlns="http://www.w3.org/2000/svg" width="60" height="60" viewBox="0 0 60 60">
  <path id="Path_298" data-name="Path 298" d="M300.615,26.946A26.917,26.917,0,0,0,273.788,0,1.789,1.789,0,0,0,272,1.788V26.946s0,0,0,.005a1.791,1.791,0,0,0,1.788,1.783h25.038A1.788,1.788,0,0,0,300.615,26.946Zm-22.509-1.788,13.366-13.366a23.49,23.49,0,0,1,2.356,3.317L283.778,25.158Zm-2.529-8.2L285.668,6.865a23.371,23.371,0,0,1,3.288,2.385L275.577,22.629Zm6.705-11.764L275.577,11.9V3.645A22.978,22.978,0,0,1,282.282,5.192Zm6.555,19.965,6.638-6.638a23.3,23.3,0,0,1,1.5,6.638Z" transform="translate(-240.615)" fill="#fecc00"/>
  <path id="Path_299" data-name="Path 299" d="M27.065,113.727a27.338,27.338,0,0,0,7.71-1.1,1.748,1.748,0,0,0,1.2-2.182L28.854,87.049v-24.3A1.771,1.771,0,0,0,27.065,61C12.259,61,0,72.745,0,87.305,0,101.838,12.226,113.727,27.065,113.727ZM25.277,64.573V87.305a1.721,1.721,0,0,0,.075.5l6.666,21.9a23.808,23.808,0,0,1-4.952.518c-12.952,0-23.488-10.279-23.488-22.915,0-11.987,9.581-21.843,21.7-22.732Z" transform="translate(0 -53.727)" fill="#008bd2"/>
  <path id="Path_300" data-name="Path 300" d="M273.788,271a1.788,1.788,0,0,0-1.714,2.3l6.573,22.028a1.789,1.789,0,0,0,2.227,1.2,24.812,24.812,0,0,0,17.57-23.741A1.789,1.789,0,0,0,296.655,271Zm7.752,21.514-5.352-17.939h18.6A21.34,21.34,0,0,1,281.54,292.514Z" transform="translate(-240.615 -239.735)" fill="rgba(0,139,210,0.4)"/>
</svg>
