<svg xmlns="http://www.w3.org/2000/svg" width="50" height="50" viewBox="0 0 50 50">
  <g id="Group_187" data-name="Group 187" transform="translate(-877 -1005)">
    <g id="global_twotone" data-name="global/twotone" transform="translate(877 1005)">
      <g id="global">
        <g id="global-2" data-name="global">
          <path id="Vector" d="M41.667,20.833A20.833,20.833,0,1,1,20.833,0,20.833,20.833,0,0,1,41.667,20.833Z" transform="translate(4.167 4.167)" fill="none" stroke="#000" stroke-linecap="round" stroke-linejoin="round" stroke-width="3"/>
          <g id="Group_722" data-name="Group 722" transform="translate(6.25 6.25)" opacity="0.4">
            <path id="Vector-2" data-name="Vector" d="M.964,0H3.047a59.216,59.216,0,0,0,0,37.5H.964" transform="translate(9.452)" fill="none" stroke="#000" stroke-linecap="round" stroke-linejoin="round" stroke-width="3"/>
            <path id="Vector-3" data-name="Vector" d="M0,0A59.216,59.216,0,0,1,0,37.5" transform="translate(25)" fill="none" stroke="#000" stroke-linecap="round" stroke-linejoin="round" stroke-width="3"/>
            <path id="Vector-4" data-name="Vector" d="M0,2.083V0A59.216,59.216,0,0,0,37.5,0V2.083" transform="translate(0 25)" fill="none" stroke="#000" stroke-linecap="round" stroke-linejoin="round" stroke-width="3"/>
            <path id="Vector-5" data-name="Vector" d="M0,3.047a59.216,59.216,0,0,1,37.5,0" transform="translate(0 9.453)" fill="none" stroke="#000" stroke-linecap="round" stroke-linejoin="round" stroke-width="3"/>
          </g>
          <path id="Vector-6" data-name="Vector" d="M0,0H50V50H0Z" transform="translate(50 50) rotate(180)" fill="none" opacity="0"/>
        </g>
      </g>
    </g>
  </g>
</svg>
